HIERARCHY
ROOT Hips
{
	OFFSET -3.958830 18.904000 13.208200
	CHANNELS 6 Xposition Yposition Zposition Zrotation Yrotation Xrotation 
	JOINT LHipJoint
	{
		OFFSET 0.000000 0.000000 0.000000
		CHANNELS 3 Zrotation Yrotation Xrotation
		JOINT LeftUpLeg
		{
			OFFSET 1.800000 -1.400000 0.085000
			CHANNELS 3 Zrotation Yrotation Xrotation
			JOINT LeftLeg
			{
				OFFSET 2.215000 -6.000000 0.000000
				CHANNELS 3 Zrotation Yrotation Xrotation
				JOINT LeftFoot
				{
					OFFSET 2.500000 -6.900000 0.000000
					CHANNELS 3 Zrotation Yrotation Xrotation
					JOINT LeftToeBase
					{
						OFFSET 0.200000 -0.500000 1.950000
						CHANNELS 3 Zrotation Yrotation Xrotation
						End Site
						{
							OFFSET 0.000000 0.000000 0.000000
						}
					}
				}
			}
		}
	}
	JOINT RHipJoint
	{
		OFFSET 0.000000 0.000000 0.000000
		CHANNELS 3 Zrotation Yrotation Xrotation
		JOINT RightUpLeg
		{
			OFFSET -1.800000 -1.400000 0.085000
			CHANNELS 3 Zrotation Yrotation Xrotation
			JOINT RightLeg
			{
				OFFSET -2.215000 -6.000000 0.000000
				CHANNELS 3 Zrotation Yrotation Xrotation
				JOINT RightFoot
				{
					OFFSET -2.500000 -6.900000 0.000000
					CHANNELS 3 Zrotation Yrotation Xrotation
					JOINT RightToeBase
					{
						OFFSET -0.200000 -0.500000 1.950000
						CHANNELS 3 Zrotation Yrotation Xrotation
						End Site
						{
							OFFSET 0.000000 0.000000 0.000000
						}
					}
				}
			}
		}
	}
	JOINT LowerBack
	{
		OFFSET 0.000000 0.000000 0.000000
		CHANNELS 3 Zrotation Yrotation Xrotation
		JOINT Spine
		{
			OFFSET -0.087000 1.940000 -0.288900
			CHANNELS 3 Zrotation Yrotation Xrotation
			JOINT Spine1
			{
				OFFSET 0.000000 1.950000 0.060000
				CHANNELS 3 Zrotation Yrotation Xrotation
				JOINT Neck
				{
					OFFSET 0.000000 0.000000 0.000000
					CHANNELS 3 Zrotation Yrotation Xrotation
					JOINT Neck1
					{
						OFFSET 0.000000 1.600000 0.340000
						CHANNELS 3 Zrotation Yrotation Xrotation
						JOINT Head
						{
							OFFSET 0.000000 1.667000 -0.240000
							CHANNELS 3 Zrotation Yrotation Xrotation
							End Site
							{
								OFFSET 0.000000 0.000000 0.000000
							}
						}
					}
				}
				JOINT LeftShoulder
				{
					OFFSET 0.000000 0.000000 0.000000
					CHANNELS 3 Zrotation Yrotation Xrotation
					JOINT LeftArm
					{
						OFFSET 2.700000 1.550000 -0.730000
						CHANNELS 3 Zrotation Yrotation Xrotation
						JOINT LeftForeArm
						{
							OFFSET 5.450000 0.000000 0.000000
							CHANNELS 3 Zrotation Yrotation Xrotation
							JOINT LeftHand
							{
								OFFSET 3.450000 0.000000 0.000000
								CHANNELS 3 Zrotation Yrotation Xrotation
								JOINT LeftHandIndex1
								{
									OFFSET 0.750000 0.000000 0.000000
									CHANNELS 3 Zrotation Yrotation Xrotation
									End Site
									{
										OFFSET 0.000000 0.000000 0.000000
									}
								}
							}
						}
					}
				}
				JOINT RightShoulder
				{
					OFFSET 0.000000 0.000000 0.000000
					CHANNELS 3 Zrotation Yrotation Xrotation
					JOINT RightArm
					{
						OFFSET -2.700000 1.550000 -0.730000
						CHANNELS 3 Zrotation Yrotation Xrotation
						JOINT RightForeArm
						{
							OFFSET -5.450000 0.000000 0.000000
							CHANNELS 3 Zrotation Yrotation Xrotation
							JOINT RightHand
							{
								OFFSET -3.450000 0.000000 0.000000
								CHANNELS 3 Zrotation Yrotation Xrotation
								JOINT RightHandIndex1
								{
									OFFSET -0.750000 0.000000 0.000000
									CHANNELS 3 Zrotation Yrotation Xrotation
									End Site
									{
										OFFSET 0.000000 0.000000 0.000000
									}
								}
							}
						}
					}
				}
			}
		}
	}
}
MOTION
Frames: 14
Frame Time: 0.016667
0.455590 16.589010 -2.157100 -10.042635 -3.964543 -3.261232 -14.971157 12.394817 1.631527 19.380757 -1.475316 -9.398257 -4.999961 7.097580 17.884328 -0.810883 5.373860 2.739186 1.008340 0.425590 0.771690 18.771896 -8.730100 5.499940 -22.500746 5.811144 -47.759328 20.361599 -33.222978 70.096259 -2.947714 -14.346363 0.005132 0.371220 0.026700 0.381670 -4.547401 -2.121464 -8.467670 20.225528 -8.157477 20.119493 -8.327827 -4.513362 8.950411 3.278519 -0.800990 -8.294066 -3.189988 0.690113 32.267000 -1.898880 1.797360 -20.006570 -22.465755 -7.224392 1.535482 -25.400486 -2.865360 -1.825028 -119.883479 -47.108179 61.840278 -3.521638 3.759695 0.925840 0.024190 0.144070 0.394200 15.733663 4.171275 6.830641 25.141025 -15.057272 -8.226394 97.612173 49.356460 39.937373 1.649398 -2.150586 -0.211000 0.236910 -0.241460 -0.482860 
0.515990 16.497520 -2.212720 -10.775529 -5.985994 -3.888328 -14.989145 12.341447 1.550038 20.127090 -1.215781 -8.301672 -5.053890 7.451560 18.649384 -0.791246 5.567718 2.661237 1.023260 0.426250 0.817420 18.784112 -8.424707 5.875090 -23.857328 6.869633 -50.194632 22.037375 -35.876455 72.717164 -3.211642 -15.052705 -0.137876 0.359220 -0.033170 0.373700 -4.541984 -2.256328 -8.650971 21.176708 -9.053499 23.644860 -8.919430 -4.684882 8.011360 3.502659 -1.259256 -8.478369 -3.988319 1.539570 32.937312 -2.587000 2.268720 -22.718860 -23.601327 -7.849881 1.903687 -23.760465 -0.654934 -3.074754 -116.229831 -46.731312 57.120636 -3.458078 3.703371 1.005570 -0.035430 0.199520 0.377570 16.411604 5.243799 6.843602 23.524187 -14.242839 -8.410117 101.158531 51.090930 44.175145 1.704008 -2.073197 -0.220210 0.248020 -0.250070 -0.511950 
0.567320 16.385650 -2.271160 -11.281589 -8.257188 -4.276973 -15.026756 12.271037 1.473452 20.688799 -0.950813 -7.475961 -5.304164 7.881520 19.496319 -0.754244 5.769673 2.577846 1.042260 0.436050 0.847200 18.789462 -8.082792 6.259494 -25.195056 8.107619 -53.289433 23.468250 -38.333305 75.319985 -3.451074 -15.742399 -0.274152 0.353890 -0.077720 0.371710 -4.513981 -2.408033 -8.812601 21.528148 -9.669881 26.937908 -9.199585 -4.706731 7.074514 3.550255 -1.910276 -8.577460 -5.066898 2.372749 32.966744 -2.819730 2.373890 -24.661540 -24.633429 -8.178990 2.244289 -22.636432 1.489442 -4.094726 -113.047738 -47.667932 54.832908 -3.412938 3.677378 1.048520 -0.081200 0.233450 0.366660 17.342714 6.275913 6.738221 22.204050 -13.109805 -8.534828 104.700104 52.977002 48.963221 1.762616 -2.007904 -0.213660 0.244710 -0.257810 -0.524570 
0.617160 16.257870 -2.331900 -11.615237 -9.607311 -4.627812 -15.069833 12.227568 1.380652 20.932327 -0.797797 -7.560004 -5.209288 8.348707 21.400337 -0.722529 5.995414 2.488399 1.046440 0.450700 0.847960 18.789217 -7.787215 6.594754 -26.854776 8.602105 -55.988235 25.348414 -40.870563 76.804231 -3.634582 -16.277544 -0.370424 0.362650 -0.082530 0.364790 -4.467919 -2.580384 -8.932222 21.437175 -10.267937 30.015004 -9.220683 -4.914634 5.960311 3.441666 -2.356892 -8.465265 -5.719723 2.864348 32.327338 -2.651000 2.183200 -25.900450 -25.856746 -8.534337 2.408143 -20.612533 3.080607 -4.595136 -111.837507 -48.313596 54.338773 -3.393918 3.658720 1.058530 -0.098230 0.248470 0.367140 18.800445 7.085797 6.504618 20.721942 -12.089711 -8.525627 107.910107 54.254429 53.215768 1.801436 -1.949399 -0.215040 0.265940 -0.258130 -0.517280 
0.664150 16.126730 -2.392420 -11.511158 -10.701260 -5.391141 -15.136210 12.298017 1.302381 20.692223 -0.636446 -8.157350 -4.642833 8.900000 24.562889 -0.670666 6.287950 2.372595 1.051040 0.472810 0.848840 18.748532 -7.545766 6.846597 -28.308559 8.980579 -57.784604 26.729808 -42.613846 77.869894 -3.756539 -16.638213 -0.417179 0.372590 -0.086250 0.351040 -4.319323 -2.889148 -9.033516 20.340017 -10.391536 33.778405 -8.694804 -4.935507 4.341126 3.383661 -2.389389 -8.279904 -5.658411 3.271274 31.710668 -2.773320 2.263140 -26.592110 -27.362752 -9.017890 2.398310 -18.475292 4.087725 -4.880215 -108.793077 -48.272303 51.772201 -3.371706 3.646165 1.050660 -0.101540 0.253710 0.369630 20.466055 7.865617 6.279588 19.039310 -11.451341 -8.651245 111.372212 55.764270 58.215538 1.833432 -1.885040 -0.212370 0.281460 -0.267060 -0.510540 
0.706090 15.999970 -2.440320 -11.112481 -12.063800 -6.343806 -15.210665 12.418174 1.273804 20.311563 -0.489838 -8.859246 -3.989462 9.588001 28.372727 -0.580121 6.730850 2.207102 1.026970 0.455030 0.839310 18.686453 -7.354604 6.991307 -29.304024 9.589516 -58.653106 27.517756 -43.358941 78.549960 -3.808170 -16.834054 -0.452905 0.362740 -0.075710 0.346250 -4.130617 -3.247949 -9.107162 18.819267 -10.140725 37.531819 -8.083119 -4.820876 2.268463 3.404696 -2.399960 -8.046396 -5.553432 3.996359 31.176587 -3.014430 2.573760 -26.335790 -29.056771 -9.300362 2.325930 -16.871500 5.235430 -5.187595 -101.514636 -48.697412 46.754694 -3.364620 3.631726 1.029160 -0.093300 0.245200 0.360160 22.161977 8.591407 5.982805 17.932479 -10.277956 -8.823391 113.307687 57.264910 62.129543 1.876840 -1.814133 -0.213550 0.285100 -0.258400 -0.502980 
0.739330 15.899410 -2.467830 -10.305986 -13.552997 -7.700026 -15.286812 12.559578 1.379330 20.208714 -0.391102 -9.333730 -4.260059 10.755505 32.313425 -0.431292 7.411225 1.969724 0.968590 0.396350 0.801870 18.599134 -7.236980 6.938007 -29.532589 10.401824 -57.615603 27.669562 -42.757123 78.420440 -3.766905 -16.752029 -0.432550 0.328220 -0.048860 0.330050 -3.906276 -3.665084 -9.164869 16.993035 -9.572553 41.069948 -7.254197 -4.600981 0.051737 3.374890 -2.960575 -7.854225 -6.641415 4.833373 31.497876 -3.188880 2.479020 -25.814780 -30.743550 -9.233481 2.071290 -16.823938 6.161027 -5.644728 -90.521133 -48.285782 38.937841 -3.349299 3.574569 1.014270 -0.086180 0.224840 0.343850 23.954222 9.406311 5.883259 18.041081 -9.439819 -9.439910 114.092760 59.019366 65.096234 1.929571 -1.692505 -0.228170 0.305600 -0.226620 -0.492290 
0.764950 15.807920 -2.468820 -9.330892 -14.952483 -8.194590 -15.338511 12.571634 1.515198 19.953346 -0.446932 -10.434205 -4.805943 12.014225 35.927821 -0.280707 8.086515 1.745921 0.886640 0.309570 0.759820 18.555003 -7.138034 6.900163 -29.959131 10.926313 -57.390633 27.381612 -41.660719 77.988683 -3.667180 -16.573226 -0.389329 0.283300 -0.005370 0.296970 -3.788966 -3.860422 -9.237548 15.671648 -8.874508 42.380758 -6.912833 -4.270926 -1.698127 3.417169 -3.319931 -7.696657 -7.387364 5.605607 32.162650 -3.624630 2.668910 -24.229860 -32.232463 -8.946002 1.789164 -17.887390 6.979796 -6.076251 -78.068021 -47.166898 30.851218 -3.344748 3.492658 0.987150 -0.061610 0.180480 0.318540 25.361778 9.757091 5.827828 20.107998 -8.381207 -9.919608 112.522291 60.416745 65.086427 1.997055 -1.568048 -0.260720 0.333190 -0.187160 -0.488690 
0.774500 15.737950 -2.452140 -8.475530 -15.806765 -8.069538 -15.381708 12.549858 1.680190 19.782950 -0.594310 -11.987888 -5.325651 13.066869 38.730548 -0.139200 8.622486 1.551456 0.819610 0.237340 0.709520 18.518591 -7.065460 6.834856 -30.450439 11.005653 -56.911017 27.813536 -40.466608 76.143123 -3.535122 -16.208452 -0.321322 0.228250 0.014460 0.307600 -3.688038 -4.009335 -9.320929 14.730918 -8.136520 41.962450 -6.475993 -3.827320 -2.855741 3.551386 -3.431210 -7.598555 -7.811801 5.942748 33.495647 -4.237980 2.817320 -22.891400 -33.270948 -8.545956 1.454674 -20.611732 7.094257 -6.633910 -63.388514 -44.458343 21.856867 -3.338042 3.438847 0.964500 -0.044840 0.162460 0.299590 26.120344 9.757738 5.816242 24.006605 -7.283532 -10.598735 109.242576 62.352252 63.591506 2.098054 -1.416003 -0.253590 0.312980 -0.148300 -0.476940 
0.773350 15.679220 -2.414800 -7.475229 -16.269056 -7.430181 -15.385481 12.558987 1.855041 19.195949 -0.807201 -13.557738 -5.679813 13.685856 40.533277 -0.039367 8.911103 1.443536 0.806930 0.229300 0.680510 18.494864 -7.171382 6.638606 -30.438942 10.705129 -54.955077 28.006651 -38.320171 72.992352 -3.329202 -15.541002 -0.183254 0.207850 0.011810 0.314760 -3.645786 -4.015615 -9.327104 14.216927 -7.504700 39.757699 -6.232644 -3.485125 -3.543475 3.582241 -3.743179 -7.292147 -8.576185 6.249162 34.672539 -4.547570 2.806910 -21.904850 -34.259347 -7.593415 0.868197 -23.990327 6.501805 -6.937536 -49.182082 -39.555974 13.654630 -3.317027 3.383584 0.942420 -0.041810 0.159110 0.308020 27.001726 9.164699 5.625292 28.171215 -6.286850 -11.024513 106.203716 63.924529 61.931247 2.188951 -1.309386 -0.229860 0.286220 -0.149650 -0.460240 
0.757470 15.643180 -2.354740 -6.595816 -16.599367 -6.912205 -15.356314 12.635621 1.981904 18.521294 -0.859090 -14.343043 -5.858113 13.886113 41.102775 0.022592 8.978846 1.426147 0.784640 0.205850 0.655210 18.479408 -7.400215 6.384994 -30.177879 10.376676 -52.124221 28.367837 -35.857967 68.969016 -3.078640 -14.710536 -0.001402 0.177110 0.017250 0.318050 -3.649053 -3.935960 -9.271768 14.177286 -6.976355 36.872552 -6.187634 -3.175107 -3.938652 3.568849 -4.157488 -6.924559 -9.590941 6.475663 36.131854 -4.981620 2.700000 -20.755340 -35.430832 -6.362744 0.290979 -27.679878 5.976321 -7.094106 -37.051440 -34.245354 7.794161 -3.319113 3.296372 0.919900 -0.036010 0.151020 0.311000 28.092600 8.283316 5.354880 32.763040 -5.292004 -11.245890 102.237236 65.400787 59.279476 2.286962 -1.209738 -0.210590 0.269000 -0.146070 -0.444760 
0.727400 15.625200 -2.267670 -5.198754 -15.878459 -6.858463 -15.304055 12.871749 2.060679 17.128102 -0.888056 -13.918168 -5.832381 13.452019 40.294257 0.032109 8.735406 1.522070 0.758430 0.177820 0.639670 18.441566 -7.827860 5.983574 -30.027121 9.327803 -47.332399 28.258105 -32.720527 63.884730 -2.746157 -13.612937 0.231547 0.144190 0.009550 0.316050 -3.613795 -3.871135 -9.132382 13.544107 -6.383870 33.551409 -6.079179 -3.174123 -4.329519 3.643399 -4.221040 -6.387534 -9.924975 6.756125 38.062339 -5.492230 2.992100 -19.667130 -36.771308 -4.679368 -0.300089 -30.839156 5.733778 -6.956811 -26.844314 -28.645978 3.818574 -3.323314 3.202683 0.904870 -0.039810 0.149620 0.305010 29.226308 6.671468 4.799281 37.070420 -4.225180 -10.970438 99.936304 65.969536 57.768101 2.357055 -1.164673 -0.195960 0.246200 -0.144400 -0.436610 
0.689830 15.621020 -2.182820 -4.277539 -14.470963 -6.242878 -15.216421 13.010506 2.118031 16.151685 -0.935410 -13.783530 -5.753904 12.825902 38.855276 -0.017170 8.418614 1.653523 0.703070 0.104120 0.611570 18.449636 -8.290044 5.603384 -29.774822 8.158207 -43.223234 28.257412 -29.871759 58.436292 -2.397338 -12.548647 0.475956 0.106470 0.045800 0.313040 -3.710989 -3.575050 -8.967842 13.917007 -6.078635 29.426856 -6.567278 -3.195975 -4.306386 3.716492 -4.070044 -5.831450 -9.568296 6.505990 39.012273 -6.115260 3.285960 -17.250000 -37.866046 -3.197439 -0.778775 -33.394183 5.654363 -6.698632 -18.878572 -23.899663 1.444164 -3.393970 3.092513 0.877220 -0.004700 0.109910 0.294550 30.010740 4.909914 4.320504 41.186547 -3.658989 -10.319279 93.161361 66.080237 52.032178 2.352457 -1.257620 -0.213520 0.237380 -0.121100 -0.437700 
0.634930 15.642220 -2.100170 -3.360994 -12.515001 -5.739818 -15.148871 13.232224 2.193406 15.371984 -0.890884 -13.385813 -5.717391 12.104191 36.846832 -0.079860 8.037239 1.813292 0.640320 0.011410 0.561720 18.419573 -8.787912 5.131415 -29.131439 6.956746 -38.427840 27.652274 -26.611175 52.529058 -2.018984 -11.367013 0.767522 0.057800 0.093340 0.314280 -3.725215 -3.408031 -8.781423 13.745718 -5.553295 25.641089 -6.265992 -3.085834 -4.327810 3.640095 -4.269051 -5.669689 -9.999397 6.334958 39.832377 -6.048830 3.090470 -14.641160 -38.353167 -1.921272 -0.997232 -36.465331 6.072366 -6.610259 -12.599998 -20.416326 0.014123 -3.474438 2.993025 0.863600 0.023370 0.065940 0.294030 30.586222 3.869573 4.211855 44.159630 -3.618454 -9.848294 90.597194 65.175992 49.430319 2.311321 -1.348557 -0.236360 0.227920 -0.089660 -0.432840 
